<svg width="143" height="36" viewBox="0 0 143 36" fill="none" xmlns="http://www.w3.org/2000/svg">
<path fill-rule="evenodd" clip-rule="evenodd" d="M4.14556 4L15.6001 15.5377C16.1418 16.0833 16.1394 16.9686 15.5949 17.5111L4.03847 29.0303L0 24.8783L7.31415 17.5111C7.85376 16.9675 7.85376 16.0865 7.31415 15.5429L0 8.17567L4.14556 4Z" fill="#0081BD"/>
<path fill-rule="evenodd" clip-rule="evenodd" d="M16.1924 4L27.647 15.5377C28.1886 16.0833 28.1862 16.9686 27.6418 17.5111L16.0853 29.0303L12.0469 24.8783L19.361 17.5111C19.9006 16.9675 19.9006 16.0865 19.361 15.5429L12.0469 8.17567L16.1924 4Z" fill="#A4D6F3"/>
<path d="M36.7986 36C42.4201 36 44.451 31.5014 44.451 27.2264V4H39.2723V27.2264C39.2723 28.9527 38.4092 31.0181 36.6829 31.0181C36.2514 31.0181 34.7452 31.0181 33.7017 30.6478L33.2305 35.4278C34.5433 35.8317 36.159 36 36.7986 36Z" fill="white"/>
<path d="M142.997 29.0303L134.448 4H128.692L120.109 29.0303H125.764L127.481 23.6204H135.626L137.376 29.0303H142.997ZM131.52 9.07178L134.145 17.2881H128.928L131.52 9.07178Z" fill="white"/>
<path d="M118.378 29.0303L112.421 18.1982C115.416 17.522 117.853 14.1847 117.853 10.9049C117.853 7.0209 115.416 4 110.031 4H100.539V29.0303H105.823V18.1982H106.901L112.219 29.0303H118.378ZM109.324 8.63223C111.478 8.63223 112.243 10.0418 112.243 11.3365C112.243 12.6312 111.512 13.9258 109.189 13.9258H105.823V8.63223H109.324Z" fill="white"/>
<path d="M87.1907 18.201H91.398H95.6054V13.4943H87.1907V8.63223H97.0864V4H81.9062V29.0303H97.0864V24.3981H87.1907V18.201Z" fill="white"/>
<path d="M55.2803 29.0303V4H50.1016V29.0303H55.2803Z" fill="white"/>
<path d="M59.5977 4V8.977H66.2094V29.0303H71.913V8.977H78.5248V4H59.5977Z" fill="white"/>
</svg>
